# Melodia Real-Time 3D Mesh: SM_Orn_MelodyToken_Water.obj
v 0.0000 0.0000 0.1250
v 0.0000 0.0000 -0.1250
v 1.3440 0.0000 0.1250
v 1.3440 0.0000 -0.1250
v 1.3440 0.0000 0.1250
v 1.3440 0.0000 -0.1250
v 1.2611 0.1660 0.1250
v 1.2611 0.1660 -0.1250
v 1.2611 0.1660 0.1250
v 1.2611 0.1660 -0.1250
v 1.0896 0.2919 0.1250
v 1.0896 0.2919 -0.1250
v 1.0896 0.2919 0.1250
v 1.0896 0.2919 -0.1250
v 0.9756 0.4041 0.1250
v 0.9756 0.4041 -0.1250
v 0.9756 0.4041 0.1250
v 0.9756 0.4041 -0.1250
v 0.9769 0.5640 0.1250
v 0.9769 0.5640 -0.1250
v 0.9769 0.5640 0.1250
v 0.9769 0.5640 -0.1250
v 1.0091 0.7743 0.1250
v 1.0091 0.7743 -0.1250
v 1.0091 0.7743 0.1250
v 1.0091 0.7743 -0.1250
v 0.9504 0.9504 0.1250
v 0.9504 0.9504 -0.1250
v 0.9504 0.9504 0.1250
v 0.9504 0.9504 -0.1250
v 0.7743 1.0091 0.1250
v 0.7743 1.0091 -0.1250
v 0.7743 1.0091 0.1250
v 0.7743 1.0091 -0.1250
v 0.5640 0.9769 0.1250
v 0.5640 0.9769 -0.1250
v 0.5640 0.9769 0.1250
v 0.5640 0.9769 -0.1250
v 0.4041 0.9756 0.1250
v 0.4041 0.9756 -0.1250
v 0.4041 0.9756 0.1250
v 0.4041 0.9756 -0.1250
v 0.2919 1.0896 0.1250
v 0.2919 1.0896 -0.1250
v 0.2919 1.0896 0.1250
v 0.2919 1.0896 -0.1250
v 0.1660 1.2611 0.1250
v 0.1660 1.2611 -0.1250
v 0.1660 1.2611 0.1250
v 0.1660 1.2611 -0.1250
v 0.0000 1.3440 0.1250
v 0.0000 1.3440 -0.1250
v 0.0000 1.3440 0.1250
v 0.0000 1.3440 -0.1250
v -0.1660 1.2611 0.1250
v -0.1660 1.2611 -0.1250
v -0.1660 1.2611 0.1250
v -0.1660 1.2611 -0.1250
v -0.2919 1.0896 0.1250
v -0.2919 1.0896 -0.1250
v -0.2919 1.0896 0.1250
v -0.2919 1.0896 -0.1250
v -0.4041 0.9756 0.1250
v -0.4041 0.9756 -0.1250
v -0.4041 0.9756 0.1250
v -0.4041 0.9756 -0.1250
v -0.5640 0.9769 0.1250
v -0.5640 0.9769 -0.1250
v -0.5640 0.9769 0.1250
v -0.5640 0.9769 -0.1250
v -0.7743 1.0091 0.1250
v -0.7743 1.0091 -0.1250
v -0.7743 1.0091 0.1250
v -0.7743 1.0091 -0.1250
v -0.9504 0.9504 0.1250
v -0.9504 0.9504 -0.1250
v -0.9504 0.9504 0.1250
v -0.9504 0.9504 -0.1250
v -1.0091 0.7743 0.1250
v -1.0091 0.7743 -0.1250
v -1.0091 0.7743 0.1250
v -1.0091 0.7743 -0.1250
v -0.9769 0.5640 0.1250
v -0.9769 0.5640 -0.1250
v -0.9769 0.5640 0.1250
v -0.9769 0.5640 -0.1250
v -0.9756 0.4041 0.1250
v -0.9756 0.4041 -0.1250
v -0.9756 0.4041 0.1250
v -0.9756 0.4041 -0.1250
v -1.0896 0.2919 0.1250
v -1.0896 0.2919 -0.1250
v -1.0896 0.2919 0.1250
v -1.0896 0.2919 -0.1250
v -1.2611 0.1660 0.1250
v -1.2611 0.1660 -0.1250
v -1.2611 0.1660 0.1250
v -1.2611 0.1660 -0.1250
v -1.3440 0.0000 0.1250
v -1.3440 0.0000 -0.1250
v -1.3440 0.0000 0.1250
v -1.3440 0.0000 -0.1250
v -1.2611 -0.1660 0.1250
v -1.2611 -0.1660 -0.1250
v -1.2611 -0.1660 0.1250
v -1.2611 -0.1660 -0.1250
v -1.0896 -0.2919 0.1250
v -1.0896 -0.2919 -0.1250
v -1.0896 -0.2919 0.1250
v -1.0896 -0.2919 -0.1250
v -0.9756 -0.4041 0.1250
v -0.9756 -0.4041 -0.1250
v -0.9756 -0.4041 0.1250
v -0.9756 -0.4041 -0.1250
v -0.9769 -0.5640 0.1250
v -0.9769 -0.5640 -0.1250
v -0.9769 -0.5640 0.1250
v -0.9769 -0.5640 -0.1250
v -1.0091 -0.7743 0.1250
v -1.0091 -0.7743 -0.1250
v -1.0091 -0.7743 0.1250
v -1.0091 -0.7743 -0.1250
v -0.9504 -0.9504 0.1250
v -0.9504 -0.9504 -0.1250
v -0.9504 -0.9504 0.1250
v -0.9504 -0.9504 -0.1250
v -0.7743 -1.0091 0.1250
v -0.7743 -1.0091 -0.1250
v -0.7743 -1.0091 0.1250
v -0.7743 -1.0091 -0.1250
v -0.5640 -0.9769 0.1250
v -0.5640 -0.9769 -0.1250
v -0.5640 -0.9769 0.1250
v -0.5640 -0.9769 -0.1250
v -0.4041 -0.9756 0.1250
v -0.4041 -0.9756 -0.1250
v -0.4041 -0.9756 0.1250
v -0.4041 -0.9756 -0.1250
v -0.2919 -1.0896 0.1250
v -0.2919 -1.0896 -0.1250
v -0.2919 -1.0896 0.1250
v -0.2919 -1.0896 -0.1250
v -0.1660 -1.2611 0.1250
v -0.1660 -1.2611 -0.1250
v -0.1660 -1.2611 0.1250
v -0.1660 -1.2611 -0.1250
v -0.0000 -1.3440 0.1250
v -0.0000 -1.3440 -0.1250
v -0.0000 -1.3440 0.1250
v -0.0000 -1.3440 -0.1250
v 0.1660 -1.2611 0.1250
v 0.1660 -1.2611 -0.1250
v 0.1660 -1.2611 0.1250
v 0.1660 -1.2611 -0.1250
v 0.2919 -1.0896 0.1250
v 0.2919 -1.0896 -0.1250
v 0.2919 -1.0896 0.1250
v 0.2919 -1.0896 -0.1250
v 0.4041 -0.9756 0.1250
v 0.4041 -0.9756 -0.1250
v 0.4041 -0.9756 0.1250
v 0.4041 -0.9756 -0.1250
v 0.5640 -0.9769 0.1250
v 0.5640 -0.9769 -0.1250
v 0.5640 -0.9769 0.1250
v 0.5640 -0.9769 -0.1250
v 0.7743 -1.0091 0.1250
v 0.7743 -1.0091 -0.1250
v 0.7743 -1.0091 0.1250
v 0.7743 -1.0091 -0.1250
v 0.9504 -0.9504 0.1250
v 0.9504 -0.9504 -0.1250
v 0.9504 -0.9504 0.1250
v 0.9504 -0.9504 -0.1250
v 1.0091 -0.7743 0.1250
v 1.0091 -0.7743 -0.1250
v 1.0091 -0.7743 0.1250
v 1.0091 -0.7743 -0.1250
v 0.9769 -0.5640 0.1250
v 0.9769 -0.5640 -0.1250
v 0.9769 -0.5640 0.1250
v 0.9769 -0.5640 -0.1250
v 0.9756 -0.4041 0.1250
v 0.9756 -0.4041 -0.1250
v 0.9756 -0.4041 0.1250
v 0.9756 -0.4041 -0.1250
v 1.0896 -0.2919 0.1250
v 1.0896 -0.2919 -0.1250
v 1.0896 -0.2919 0.1250
v 1.0896 -0.2919 -0.1250
v 1.2611 -0.1660 0.1250
v 1.2611 -0.1660 -0.1250
v 1.2611 -0.1660 0.1250
v 1.2611 -0.1660 -0.1250
v 1.3440 -0.0000 0.1250
v 1.3440 -0.0000 -0.1250
v 1.3440 -0.0000 0.1250
v 1.3440 -0.0000 -0.1250
vt 0.5000 0.5000
vt 0.5000 0.5000
vt 1.0000 0.5000
vt 1.0000 0.5000
vt 0.0000 1.0000
vt 0.0000 0.0000
vt 0.9957 0.5653
vt 0.9957 0.5653
vt 0.0208 1.0000
vt 0.0208 0.0000
vt 0.9830 0.6294
vt 0.9830 0.6294
vt 0.0417 1.0000
vt 0.0417 0.0000
vt 0.9619 0.6913
vt 0.9619 0.6913
vt 0.0625 1.0000
vt 0.0625 0.0000
vt 0.9330 0.7500
vt 0.9330 0.7500
vt 0.0833 1.0000
vt 0.0833 0.0000
vt 0.8967 0.8044
vt 0.8967 0.8044
vt 0.1042 1.0000
vt 0.1042 0.0000
vt 0.8536 0.8536
vt 0.8536 0.8536
vt 0.1250 1.0000
vt 0.1250 0.0000
vt 0.8044 0.8967
vt 0.8044 0.8967
vt 0.1458 1.0000
vt 0.1458 0.0000
vt 0.7500 0.9330
vt 0.7500 0.9330
vt 0.1667 1.0000
vt 0.1667 0.0000
vt 0.6913 0.9619
vt 0.6913 0.9619
vt 0.1875 1.0000
vt 0.1875 0.0000
vt 0.6294 0.9830
vt 0.6294 0.9830
vt 0.2083 1.0000
vt 0.2083 0.0000
vt 0.5653 0.9957
vt 0.5653 0.9957
vt 0.2292 1.0000
vt 0.2292 0.0000
vt 0.5000 1.0000
vt 0.5000 1.0000
vt 0.2500 1.0000
vt 0.2500 0.0000
vt 0.4347 0.9957
vt 0.4347 0.9957
vt 0.2708 1.0000
vt 0.2708 0.0000
vt 0.3706 0.9830
vt 0.3706 0.9830
vt 0.2917 1.0000
vt 0.2917 0.0000
vt 0.3087 0.9619
vt 0.3087 0.9619
vt 0.3125 1.0000
vt 0.3125 0.0000
vt 0.2500 0.9330
vt 0.2500 0.9330
vt 0.3333 1.0000
vt 0.3333 0.0000
vt 0.1956 0.8967
vt 0.1956 0.8967
vt 0.3542 1.0000
vt 0.3542 0.0000
vt 0.1464 0.8536
vt 0.1464 0.8536
vt 0.3750 1.0000
vt 0.3750 0.0000
vt 0.1033 0.8044
vt 0.1033 0.8044
vt 0.3958 1.0000
vt 0.3958 0.0000
vt 0.0670 0.7500
vt 0.0670 0.7500
vt 0.4167 1.0000
vt 0.4167 0.0000
vt 0.0381 0.6913
vt 0.0381 0.6913
vt 0.4375 1.0000
vt 0.4375 0.0000
vt 0.0170 0.6294
vt 0.0170 0.6294
vt 0.4583 1.0000
vt 0.4583 0.0000
vt 0.0043 0.5653
vt 0.0043 0.5653
vt 0.4792 1.0000
vt 0.4792 0.0000
vt 0.0000 0.5000
vt 0.0000 0.5000
vt 0.5000 1.0000
vt 0.5000 0.0000
vt 0.0043 0.4347
vt 0.0043 0.4347
vt 0.5208 1.0000
vt 0.5208 0.0000
vt 0.0170 0.3706
vt 0.0170 0.3706
vt 0.5417 1.0000
vt 0.5417 0.0000
vt 0.0381 0.3087
vt 0.0381 0.3087
vt 0.5625 1.0000
vt 0.5625 0.0000
vt 0.0670 0.2500
vt 0.0670 0.2500
vt 0.5833 1.0000
vt 0.5833 0.0000
vt 0.1033 0.1956
vt 0.1033 0.1956
vt 0.6042 1.0000
vt 0.6042 0.0000
vt 0.1464 0.1464
vt 0.1464 0.1464
vt 0.6250 1.0000
vt 0.6250 0.0000
vt 0.1956 0.1033
vt 0.1956 0.1033
vt 0.6458 1.0000
vt 0.6458 0.0000
vt 0.2500 0.0670
vt 0.2500 0.0670
vt 0.6667 1.0000
vt 0.6667 0.0000
vt 0.3087 0.0381
vt 0.3087 0.0381
vt 0.6875 1.0000
vt 0.6875 0.0000
vt 0.3706 0.0170
vt 0.3706 0.0170
vt 0.7083 1.0000
vt 0.7083 0.0000
vt 0.4347 0.0043
vt 0.4347 0.0043
vt 0.7292 1.0000
vt 0.7292 0.0000
vt 0.5000 0.0000
vt 0.5000 0.0000
vt 0.7500 1.0000
vt 0.7500 0.0000
vt 0.5653 0.0043
vt 0.5653 0.0043
vt 0.7708 1.0000
vt 0.7708 0.0000
vt 0.6294 0.0170
vt 0.6294 0.0170
vt 0.7917 1.0000
vt 0.7917 0.0000
vt 0.6913 0.0381
vt 0.6913 0.0381
vt 0.8125 1.0000
vt 0.8125 0.0000
vt 0.7500 0.0670
vt 0.7500 0.0670
vt 0.8333 1.0000
vt 0.8333 0.0000
vt 0.8044 0.1033
vt 0.8044 0.1033
vt 0.8542 1.0000
vt 0.8542 0.0000
vt 0.8536 0.1464
vt 0.8536 0.1464
vt 0.8750 1.0000
vt 0.8750 0.0000
vt 0.8967 0.1956
vt 0.8967 0.1956
vt 0.8958 1.0000
vt 0.8958 0.0000
vt 0.9330 0.2500
vt 0.9330 0.2500
vt 0.9167 1.0000
vt 0.9167 0.0000
vt 0.9619 0.3087
vt 0.9619 0.3087
vt 0.9375 1.0000
vt 0.9375 0.0000
vt 0.9830 0.3706
vt 0.9830 0.3706
vt 0.9583 1.0000
vt 0.9583 0.0000
vt 0.9957 0.4347
vt 0.9957 0.4347
vt 0.9792 1.0000
vt 0.9792 0.0000
vt 1.0000 0.5000
vt 1.0000 0.5000
vt 1.0000 1.0000
vt 1.0000 0.0000
vn 0.0000 0.0000 1.0000
vn 0.0000 0.0000 -1.0000
vn 0.0000 0.0000 1.0000
vn 0.0000 0.0000 -1.0000
vn 1.0000 0.0000 0.0000
vn 1.0000 0.0000 0.0000
vn 0.0000 0.0000 1.0000
vn 0.0000 0.0000 -1.0000
vn 0.9914 0.1305 0.0000
vn 0.9914 0.1305 0.0000
vn 0.0000 0.0000 1.0000
vn 0.0000 0.0000 -1.0000
vn 0.9659 0.2588 0.0000
vn 0.9659 0.2588 0.0000
vn 0.0000 0.0000 1.0000
vn 0.0000 0.0000 -1.0000
vn 0.9239 0.3827 0.0000
vn 0.9239 0.3827 0.0000
vn 0.0000 0.0000 1.0000
vn 0.0000 0.0000 -1.0000
vn 0.8660 0.5000 0.0000
vn 0.8660 0.5000 0.0000
vn 0.0000 0.0000 1.0000
vn 0.0000 0.0000 -1.0000
vn 0.7934 0.6088 0.0000
vn 0.7934 0.6088 0.0000
vn 0.0000 0.0000 1.0000
vn 0.0000 0.0000 -1.0000
vn 0.7071 0.7071 0.0000
vn 0.7071 0.7071 0.0000
vn 0.0000 0.0000 1.0000
vn 0.0000 0.0000 -1.0000
vn 0.6088 0.7934 0.0000
vn 0.6088 0.7934 0.0000
vn 0.0000 0.0000 1.0000
vn 0.0000 0.0000 -1.0000
vn 0.5000 0.8660 0.0000
vn 0.5000 0.8660 0.0000
vn 0.0000 0.0000 1.0000
vn 0.0000 0.0000 -1.0000
vn 0.3827 0.9239 0.0000
vn 0.3827 0.9239 0.0000
vn 0.0000 0.0000 1.0000
vn 0.0000 0.0000 -1.0000
vn 0.2588 0.9659 0.0000
vn 0.2588 0.9659 0.0000
vn 0.0000 0.0000 1.0000
vn 0.0000 0.0000 -1.0000
vn 0.1305 0.9914 0.0000
vn 0.1305 0.9914 0.0000
vn 0.0000 0.0000 1.0000
vn 0.0000 0.0000 -1.0000
vn 0.0000 1.0000 0.0000
vn 0.0000 1.0000 0.0000
vn 0.0000 0.0000 1.0000
vn 0.0000 0.0000 -1.0000
vn -0.1305 0.9914 0.0000
vn -0.1305 0.9914 0.0000
vn 0.0000 0.0000 1.0000
vn 0.0000 0.0000 -1.0000
vn -0.2588 0.9659 0.0000
vn -0.2588 0.9659 0.0000
vn 0.0000 0.0000 1.0000
vn 0.0000 0.0000 -1.0000
vn -0.3827 0.9239 0.0000
vn -0.3827 0.9239 0.0000
vn 0.0000 0.0000 1.0000
vn 0.0000 0.0000 -1.0000
vn -0.5000 0.8660 0.0000
vn -0.5000 0.8660 0.0000
vn 0.0000 0.0000 1.0000
vn 0.0000 0.0000 -1.0000
vn -0.6088 0.7934 0.0000
vn -0.6088 0.7934 0.0000
vn 0.0000 0.0000 1.0000
vn 0.0000 0.0000 -1.0000
vn -0.7071 0.7071 0.0000
vn -0.7071 0.7071 0.0000
vn 0.0000 0.0000 1.0000
vn 0.0000 0.0000 -1.0000
vn -0.7934 0.6088 0.0000
vn -0.7934 0.6088 0.0000
vn 0.0000 0.0000 1.0000
vn 0.0000 0.0000 -1.0000
vn -0.8660 0.5000 0.0000
vn -0.8660 0.5000 0.0000
vn 0.0000 0.0000 1.0000
vn 0.0000 0.0000 -1.0000
vn -0.9239 0.3827 0.0000
vn -0.9239 0.3827 0.0000
vn 0.0000 0.0000 1.0000
vn 0.0000 0.0000 -1.0000
vn -0.9659 0.2588 0.0000
vn -0.9659 0.2588 0.0000
vn 0.0000 0.0000 1.0000
vn 0.0000 0.0000 -1.0000
vn -0.9914 0.1305 0.0000
vn -0.9914 0.1305 0.0000
vn 0.0000 0.0000 1.0000
vn 0.0000 0.0000 -1.0000
vn -1.0000 0.0000 0.0000
vn -1.0000 0.0000 0.0000
vn 0.0000 0.0000 1.0000
vn 0.0000 0.0000 -1.0000
vn -0.9914 -0.1305 0.0000
vn -0.9914 -0.1305 0.0000
vn 0.0000 0.0000 1.0000
vn 0.0000 0.0000 -1.0000
vn -0.9659 -0.2588 0.0000
vn -0.9659 -0.2588 0.0000
vn 0.0000 0.0000 1.0000
vn 0.0000 0.0000 -1.0000
vn -0.9239 -0.3827 0.0000
vn -0.9239 -0.3827 0.0000
vn 0.0000 0.0000 1.0000
vn 0.0000 0.0000 -1.0000
vn -0.8660 -0.5000 0.0000
vn -0.8660 -0.5000 0.0000
vn 0.0000 0.0000 1.0000
vn 0.0000 0.0000 -1.0000
vn -0.7934 -0.6088 0.0000
vn -0.7934 -0.6088 0.0000
vn 0.0000 0.0000 1.0000
vn 0.0000 0.0000 -1.0000
vn -0.7071 -0.7071 0.0000
vn -0.7071 -0.7071 0.0000
vn 0.0000 0.0000 1.0000
vn 0.0000 0.0000 -1.0000
vn -0.6088 -0.7934 0.0000
vn -0.6088 -0.7934 0.0000
vn 0.0000 0.0000 1.0000
vn 0.0000 0.0000 -1.0000
vn -0.5000 -0.8660 0.0000
vn -0.5000 -0.8660 0.0000
vn 0.0000 0.0000 1.0000
vn 0.0000 0.0000 -1.0000
vn -0.3827 -0.9239 0.0000
vn -0.3827 -0.9239 0.0000
vn 0.0000 0.0000 1.0000
vn 0.0000 0.0000 -1.0000
vn -0.2588 -0.9659 0.0000
vn -0.2588 -0.9659 0.0000
vn 0.0000 0.0000 1.0000
vn 0.0000 0.0000 -1.0000
vn -0.1305 -0.9914 0.0000
vn -0.1305 -0.9914 0.0000
vn 0.0000 0.0000 1.0000
vn 0.0000 0.0000 -1.0000
vn -0.0000 -1.0000 0.0000
vn -0.0000 -1.0000 0.0000
vn 0.0000 0.0000 1.0000
vn 0.0000 0.0000 -1.0000
vn 0.1305 -0.9914 0.0000
vn 0.1305 -0.9914 0.0000
vn 0.0000 0.0000 1.0000
vn 0.0000 0.0000 -1.0000
vn 0.2588 -0.9659 0.0000
vn 0.2588 -0.9659 0.0000
vn 0.0000 0.0000 1.0000
vn 0.0000 0.0000 -1.0000
vn 0.3827 -0.9239 0.0000
vn 0.3827 -0.9239 0.0000
vn 0.0000 0.0000 1.0000
vn 0.0000 0.0000 -1.0000
vn 0.5000 -0.8660 0.0000
vn 0.5000 -0.8660 0.0000
vn 0.0000 0.0000 1.0000
vn 0.0000 0.0000 -1.0000
vn 0.6088 -0.7934 0.0000
vn 0.6088 -0.7934 0.0000
vn 0.0000 0.0000 1.0000
vn 0.0000 0.0000 -1.0000
vn 0.7071 -0.7071 0.0000
vn 0.7071 -0.7071 0.0000
vn 0.0000 0.0000 1.0000
vn 0.0000 0.0000 -1.0000
vn 0.7934 -0.6088 0.0000
vn 0.7934 -0.6088 0.0000
vn 0.0000 0.0000 1.0000
vn 0.0000 0.0000 -1.0000
vn 0.8660 -0.5000 0.0000
vn 0.8660 -0.5000 0.0000
vn 0.0000 0.0000 1.0000
vn 0.0000 0.0000 -1.0000
vn 0.9239 -0.3827 0.0000
vn 0.9239 -0.3827 0.0000
vn 0.0000 0.0000 1.0000
vn 0.0000 0.0000 -1.0000
vn 0.9659 -0.2588 0.0000
vn 0.9659 -0.2588 0.0000
vn 0.0000 0.0000 1.0000
vn 0.0000 0.0000 -1.0000
vn 0.9914 -0.1305 0.0000
vn 0.9914 -0.1305 0.0000
vn 0.0000 0.0000 1.0000
vn 0.0000 0.0000 -1.0000
vn 1.0000 -0.0000 0.0000
vn 1.0000 -0.0000 0.0000
f 1/1/1 3/3/3 7/7/7
f 2/2/2 8/8/8 4/4/4
f 5/5/5 6/6/6 10/10/10
f 5/5/5 10/10/10 9/9/9
f 1/1/1 7/7/7 11/11/11
f 2/2/2 12/12/12 8/8/8
f 9/9/9 10/10/10 14/14/14
f 9/9/9 14/14/14 13/13/13
f 1/1/1 11/11/11 15/15/15
f 2/2/2 16/16/16 12/12/12
f 13/13/13 14/14/14 18/18/18
f 13/13/13 18/18/18 17/17/17
f 1/1/1 15/15/15 19/19/19
f 2/2/2 20/20/20 16/16/16
f 17/17/17 18/18/18 22/22/22
f 17/17/17 22/22/22 21/21/21
f 1/1/1 19/19/19 23/23/23
f 2/2/2 24/24/24 20/20/20
f 21/21/21 22/22/22 26/26/26
f 21/21/21 26/26/26 25/25/25
f 1/1/1 23/23/23 27/27/27
f 2/2/2 28/28/28 24/24/24
f 25/25/25 26/26/26 30/30/30
f 25/25/25 30/30/30 29/29/29
f 1/1/1 27/27/27 31/31/31
f 2/2/2 32/32/32 28/28/28
f 29/29/29 30/30/30 34/34/34
f 29/29/29 34/34/34 33/33/33
f 1/1/1 31/31/31 35/35/35
f 2/2/2 36/36/36 32/32/32
f 33/33/33 34/34/34 38/38/38
f 33/33/33 38/38/38 37/37/37
f 1/1/1 35/35/35 39/39/39
f 2/2/2 40/40/40 36/36/36
f 37/37/37 38/38/38 42/42/42
f 37/37/37 42/42/42 41/41/41
f 1/1/1 39/39/39 43/43/43
f 2/2/2 44/44/44 40/40/40
f 41/41/41 42/42/42 46/46/46
f 41/41/41 46/46/46 45/45/45
f 1/1/1 43/43/43 47/47/47
f 2/2/2 48/48/48 44/44/44
f 45/45/45 46/46/46 50/50/50
f 45/45/45 50/50/50 49/49/49
f 1/1/1 47/47/47 51/51/51
f 2/2/2 52/52/52 48/48/48
f 49/49/49 50/50/50 54/54/54
f 49/49/49 54/54/54 53/53/53
f 1/1/1 51/51/51 55/55/55
f 2/2/2 56/56/56 52/52/52
f 53/53/53 54/54/54 58/58/58
f 53/53/53 58/58/58 57/57/57
f 1/1/1 55/55/55 59/59/59
f 2/2/2 60/60/60 56/56/56
f 57/57/57 58/58/58 62/62/62
f 57/57/57 62/62/62 61/61/61
f 1/1/1 59/59/59 63/63/63
f 2/2/2 64/64/64 60/60/60
f 61/61/61 62/62/62 66/66/66
f 61/61/61 66/66/66 65/65/65
f 1/1/1 63/63/63 67/67/67
f 2/2/2 68/68/68 64/64/64
f 65/65/65 66/66/66 70/70/70
f 65/65/65 70/70/70 69/69/69
f 1/1/1 67/67/67 71/71/71
f 2/2/2 72/72/72 68/68/68
f 69/69/69 70/70/70 74/74/74
f 69/69/69 74/74/74 73/73/73
f 1/1/1 71/71/71 75/75/75
f 2/2/2 76/76/76 72/72/72
f 73/73/73 74/74/74 78/78/78
f 73/73/73 78/78/78 77/77/77
f 1/1/1 75/75/75 79/79/79
f 2/2/2 80/80/80 76/76/76
f 77/77/77 78/78/78 82/82/82
f 77/77/77 82/82/82 81/81/81
f 1/1/1 79/79/79 83/83/83
f 2/2/2 84/84/84 80/80/80
f 81/81/81 82/82/82 86/86/86
f 81/81/81 86/86/86 85/85/85
f 1/1/1 83/83/83 87/87/87
f 2/2/2 88/88/88 84/84/84
f 85/85/85 86/86/86 90/90/90
f 85/85/85 90/90/90 89/89/89
f 1/1/1 87/87/87 91/91/91
f 2/2/2 92/92/92 88/88/88
f 89/89/89 90/90/90 94/94/94
f 89/89/89 94/94/94 93/93/93
f 1/1/1 91/91/91 95/95/95
f 2/2/2 96/96/96 92/92/92
f 93/93/93 94/94/94 98/98/98
f 93/93/93 98/98/98 97/97/97
f 1/1/1 95/95/95 99/99/99
f 2/2/2 100/100/100 96/96/96
f 97/97/97 98/98/98 102/102/102
f 97/97/97 102/102/102 101/101/101
f 1/1/1 99/99/99 103/103/103
f 2/2/2 104/104/104 100/100/100
f 101/101/101 102/102/102 106/106/106
f 101/101/101 106/106/106 105/105/105
f 1/1/1 103/103/103 107/107/107
f 2/2/2 108/108/108 104/104/104
f 105/105/105 106/106/106 110/110/110
f 105/105/105 110/110/110 109/109/109
f 1/1/1 107/107/107 111/111/111
f 2/2/2 112/112/112 108/108/108
f 109/109/109 110/110/110 114/114/114
f 109/109/109 114/114/114 113/113/113
f 1/1/1 111/111/111 115/115/115
f 2/2/2 116/116/116 112/112/112
f 113/113/113 114/114/114 118/118/118
f 113/113/113 118/118/118 117/117/117
f 1/1/1 115/115/115 119/119/119
f 2/2/2 120/120/120 116/116/116
f 117/117/117 118/118/118 122/122/122
f 117/117/117 122/122/122 121/121/121
f 1/1/1 119/119/119 123/123/123
f 2/2/2 124/124/124 120/120/120
f 121/121/121 122/122/122 126/126/126
f 121/121/121 126/126/126 125/125/125
f 1/1/1 123/123/123 127/127/127
f 2/2/2 128/128/128 124/124/124
f 125/125/125 126/126/126 130/130/130
f 125/125/125 130/130/130 129/129/129
f 1/1/1 127/127/127 131/131/131
f 2/2/2 132/132/132 128/128/128
f 129/129/129 130/130/130 134/134/134
f 129/129/129 134/134/134 133/133/133
f 1/1/1 131/131/131 135/135/135
f 2/2/2 136/136/136 132/132/132
f 133/133/133 134/134/134 138/138/138
f 133/133/133 138/138/138 137/137/137
f 1/1/1 135/135/135 139/139/139
f 2/2/2 140/140/140 136/136/136
f 137/137/137 138/138/138 142/142/142
f 137/137/137 142/142/142 141/141/141
f 1/1/1 139/139/139 143/143/143
f 2/2/2 144/144/144 140/140/140
f 141/141/141 142/142/142 146/146/146
f 141/141/141 146/146/146 145/145/145
f 1/1/1 143/143/143 147/147/147
f 2/2/2 148/148/148 144/144/144
f 145/145/145 146/146/146 150/150/150
f 145/145/145 150/150/150 149/149/149
f 1/1/1 147/147/147 151/151/151
f 2/2/2 152/152/152 148/148/148
f 149/149/149 150/150/150 154/154/154
f 149/149/149 154/154/154 153/153/153
f 1/1/1 151/151/151 155/155/155
f 2/2/2 156/156/156 152/152/152
f 153/153/153 154/154/154 158/158/158
f 153/153/153 158/158/158 157/157/157
f 1/1/1 155/155/155 159/159/159
f 2/2/2 160/160/160 156/156/156
f 157/157/157 158/158/158 162/162/162
f 157/157/157 162/162/162 161/161/161
f 1/1/1 159/159/159 163/163/163
f 2/2/2 164/164/164 160/160/160
f 161/161/161 162/162/162 166/166/166
f 161/161/161 166/166/166 165/165/165
f 1/1/1 163/163/163 167/167/167
f 2/2/2 168/168/168 164/164/164
f 165/165/165 166/166/166 170/170/170
f 165/165/165 170/170/170 169/169/169
f 1/1/1 167/167/167 171/171/171
f 2/2/2 172/172/172 168/168/168
f 169/169/169 170/170/170 174/174/174
f 169/169/169 174/174/174 173/173/173
f 1/1/1 171/171/171 175/175/175
f 2/2/2 176/176/176 172/172/172
f 173/173/173 174/174/174 178/178/178
f 173/173/173 178/178/178 177/177/177
f 1/1/1 175/175/175 179/179/179
f 2/2/2 180/180/180 176/176/176
f 177/177/177 178/178/178 182/182/182
f 177/177/177 182/182/182 181/181/181
f 1/1/1 179/179/179 183/183/183
f 2/2/2 184/184/184 180/180/180
f 181/181/181 182/182/182 186/186/186
f 181/181/181 186/186/186 185/185/185
f 1/1/1 183/183/183 187/187/187
f 2/2/2 188/188/188 184/184/184
f 185/185/185 186/186/186 190/190/190
f 185/185/185 190/190/190 189/189/189
f 1/1/1 187/187/187 191/191/191
f 2/2/2 192/192/192 188/188/188
f 189/189/189 190/190/190 194/194/194
f 189/189/189 194/194/194 193/193/193
f 1/1/1 191/191/191 195/195/195
f 2/2/2 196/196/196 192/192/192
f 193/193/193 194/194/194 198/198/198
f 193/193/193 198/198/198 197/197/197
