<svg xmlns="http://www.w3.org/2000/svg" viewBox="0 0 320 320" fill="none">
  <circle cx="160" cy="160" r="118" stroke="#D2B878" stroke-width="2" stroke-opacity=".72"/>
  <circle cx="160" cy="160" r="96" stroke="#BBAAE1" stroke-width="1.5" stroke-opacity=".48"/>
  <circle cx="160" cy="160" r="74" stroke="#98C2BB" stroke-width="1" stroke-opacity=".28" stroke-dasharray="3 8"/>
  <g stroke="#F5F0E8" stroke-opacity=".36" fill="#F5F0E8">
    <g transform="rotate(0 160 160)"><circle cx="160" cy="42" r="8" fill="#D2B878"/><circle cx="160" cy="42" r="13" fill="none"/></g>
    <g transform="rotate(30 160 160)"><circle cx="160" cy="42" r="8" fill="#BBAAE1"/><circle cx="160" cy="42" r="13" fill="none"/></g>
    <g transform="rotate(60 160 160)"><circle cx="160" cy="42" r="8" fill="#98C2BB"/><circle cx="160" cy="42" r="13" fill="none"/></g>
    <g transform="rotate(90 160 160)"><circle cx="160" cy="42" r="8" fill="#D2B878"/><circle cx="160" cy="42" r="13" fill="none"/></g>
    <g transform="rotate(120 160 160)"><circle cx="160" cy="42" r="8" fill="#BBAAE1"/><circle cx="160" cy="42" r="13" fill="none"/></g>
    <g transform="rotate(150 160 160)"><circle cx="160" cy="42" r="8" fill="#98C2BB"/><circle cx="160" cy="42" r="13" fill="none"/></g>
    <g transform="rotate(180 160 160)"><circle cx="160" cy="42" r="8" fill="#D2B878"/><circle cx="160" cy="42" r="13" fill="none"/></g>
    <g transform="rotate(210 160 160)"><circle cx="160" cy="42" r="8" fill="#BBAAE1"/><circle cx="160" cy="42" r="13" fill="none"/></g>
    <g transform="rotate(240 160 160)"><circle cx="160" cy="42" r="8" fill="#98C2BB"/><circle cx="160" cy="42" r="13" fill="none"/></g>
    <g transform="rotate(270 160 160)"><circle cx="160" cy="42" r="8" fill="#D2B878"/><circle cx="160" cy="42" r="13" fill="none"/></g>
    <g transform="rotate(300 160 160)"><circle cx="160" cy="42" r="8" fill="#BBAAE1"/><circle cx="160" cy="42" r="13" fill="none"/></g>
    <g transform="rotate(330 160 160)"><circle cx="160" cy="42" r="8" fill="#98C2BB"/><circle cx="160" cy="42" r="13" fill="none"/></g>
  </g>
  <circle cx="160" cy="160" r="5" fill="#F5F0E8"/>
</svg>
